<?xml version="1.0" standalone="no"?><!DOCTYPE svg PUBLIC "-//W3C//DTD SVG 1.1//EN" "http://www.w3.org/Graphics/SVG/1.1/DTD/svg11.dtd"><svg t="1755760713058" class="icon" viewBox="0 0 1024 1024" version="1.1" xmlns="http://www.w3.org/2000/svg" p-id="5207" xmlns:xlink="http://www.w3.org/1999/xlink" width="200" height="200"><path d="M906.973 436.356l-79.161-202.176c-14.895-38.512-47.169-71.394-108.082-71.394h-111.811c0 0-36.308-84.67-54.955-84.67h-80.64c-18.646 0-54.956 84.67-54.956 84.67h-113.123c-60.842 0-93.117 32.882-107.988 71.394l-79.185 202.176c-31.407 3.987-86.972 40.481-86.972 109.532v257.222h89.059v64.053c0 101.181 120.538 100.009 120.538 0v-64.053h544.606v64.053c0 100.009 120.538 101.181 120.538 0v-64.053h89.060v-257.222c0.025-69.050-55.566-105.545-86.926-109.532zM223.956 647.375c-37.715 0-68.324-31.171-68.324-69.659 0-38.512 30.609-69.683 68.324-69.683 37.716 0 68.301 31.171 68.301 69.683 0 38.489-30.585 69.659-68.301 69.659zM199.024 431.618l59.6-156.439c7.458-22.329 18.624-38.512 44.752-38.77h417.315c26.011 0.257 37.199 16.442 44.658 38.77l59.622 156.439h-625.947zM800.064 647.375c-37.717 0-68.3-31.171-68.3-69.659 0-38.512 30.586-69.683 68.3-69.683 37.763 0 68.348 31.171 68.348 69.683 0 38.489-30.585 69.659-68.348 69.659z" fill="#1296db" p-id="5208"></path></svg>